<?xml version="1.0" encoding="UTF-8" standalone="no"?>
<!DOCTYPE svg PUBLIC "-//W3C//DTD SVG 1.1//EN" "http://www.w3.org/Graphics/SVG/1.1/DTD/svg11.dtd">
<svg width="100%" height="100%" viewBox="0 0 500 160" version="1.1" xmlns="http://www.w3.org/2000/svg" xmlns:xlink="http://www.w3.org/1999/xlink" xml:space="preserve" xmlns:serif="http://www.serif.com/" style="fill-rule:evenodd;clip-rule:evenodd;stroke-linejoin:round;stroke-miterlimit:2;">
    <g transform="matrix(1.02312,4.68278e-17,-4.68278e-17,1.02312,-695.739,-374.127)">
        <g transform="matrix(144,0,0,144,686.765,485.192)">
            <path d="M0.054,-0L0.054,-0.83L0.236,-0.83L0.236,-0.463C0.254,-0.483 0.276,-0.499 0.302,-0.509C0.327,-0.521 0.353,-0.527 0.38,-0.529L0.395,-0.529C0.471,-0.529 0.533,-0.502 0.581,-0.448C0.628,-0.393 0.652,-0.329 0.652,-0.256C0.652,-0.182 0.628,-0.118 0.58,-0.064C0.532,-0.01 0.47,0.017 0.393,0.017L0.381,0.017C0.353,0.016 0.326,0.009 0.3,-0.003C0.274,-0.014 0.253,-0.032 0.238,-0.056L0.236,-0.057L0.236,-0L0.054,-0ZM0.347,-0.372C0.31,-0.371 0.282,-0.36 0.261,-0.337C0.24,-0.314 0.23,-0.286 0.23,-0.255C0.23,-0.222 0.24,-0.195 0.261,-0.173C0.282,-0.151 0.31,-0.14 0.347,-0.14C0.384,-0.14 0.413,-0.151 0.434,-0.173C0.454,-0.195 0.464,-0.223 0.464,-0.256C0.464,-0.287 0.454,-0.314 0.434,-0.337C0.413,-0.36 0.384,-0.372 0.347,-0.372Z" style="fill:white;fill-rule:nonzero;"/>
        </g>
        <g transform="matrix(144,0,0,144,774.173,485.192)">
            <path d="M0.242,-0.513L0.242,-0L0.06,-0L0.06,-0.513L0.242,-0.513ZM0.151,-0.812C0.179,-0.811 0.203,-0.801 0.223,-0.781C0.243,-0.761 0.253,-0.737 0.253,-0.709C0.253,-0.681 0.243,-0.657 0.223,-0.637C0.203,-0.617 0.179,-0.607 0.151,-0.607C0.123,-0.607 0.099,-0.617 0.079,-0.637C0.059,-0.657 0.049,-0.681 0.049,-0.709C0.049,-0.737 0.059,-0.762 0.079,-0.782C0.099,-0.802 0.123,-0.812 0.151,-0.812Z" style="fill:white;fill-rule:nonzero;"/>
        </g>
        <g transform="matrix(144,0,0,144,806.861,485.192)">
            <path d="M0.242,-0.513L0.242,-0.447L0.244,-0.447C0.265,-0.478 0.289,-0.499 0.316,-0.511C0.342,-0.523 0.373,-0.529 0.408,-0.529C0.477,-0.529 0.527,-0.509 0.557,-0.47C0.586,-0.431 0.601,-0.379 0.601,-0.316L0.601,-0L0.419,-0L0.419,-0.28C0.419,-0.287 0.419,-0.293 0.418,-0.3C0.417,-0.321 0.411,-0.34 0.4,-0.358C0.389,-0.375 0.368,-0.384 0.337,-0.384C0.3,-0.384 0.275,-0.372 0.262,-0.348C0.249,-0.325 0.242,-0.297 0.242,-0.265L0.242,-0L0.06,-0L0.06,-0.513L0.242,-0.513Z" style="fill:white;fill-rule:nonzero;"/>
        </g>
        <g transform="matrix(144,0,0,144,892.397,485.192)">
            <path d="M0.623,-0.513L0.623,-0.05C0.623,0.059 0.597,0.138 0.546,0.185C0.494,0.232 0.421,0.256 0.326,0.256C0.313,0.256 0.3,0.255 0.286,0.254C0.272,0.253 0.258,0.25 0.244,0.247C0.195,0.236 0.149,0.216 0.107,0.185C0.064,0.154 0.04,0.113 0.034,0.06L0.238,0.06C0.241,0.069 0.245,0.077 0.251,0.083C0.257,0.09 0.264,0.095 0.272,0.099C0.277,0.102 0.282,0.104 0.287,0.105C0.292,0.107 0.298,0.108 0.303,0.109C0.306,0.11 0.31,0.11 0.314,0.11C0.317,0.111 0.321,0.111 0.324,0.111C0.373,0.111 0.405,0.097 0.42,0.068C0.434,0.04 0.441,0.006 0.441,-0.035L0.441,-0.06C0.418,-0.036 0.393,-0.018 0.368,-0.007C0.342,0.004 0.312,0.01 0.278,0.01C0.203,0.01 0.142,-0.015 0.096,-0.065C0.049,-0.115 0.025,-0.177 0.025,-0.251C0.025,-0.326 0.049,-0.392 0.098,-0.447C0.146,-0.501 0.209,-0.529 0.288,-0.529C0.318,-0.529 0.346,-0.524 0.373,-0.513C0.399,-0.501 0.421,-0.483 0.439,-0.458L0.441,-0.459L0.441,-0.513L0.623,-0.513ZM0.33,-0.376C0.293,-0.375 0.265,-0.364 0.244,-0.341C0.223,-0.318 0.213,-0.29 0.213,-0.259C0.213,-0.226 0.223,-0.199 0.244,-0.177C0.265,-0.155 0.293,-0.144 0.33,-0.144C0.367,-0.144 0.396,-0.155 0.417,-0.177C0.437,-0.199 0.447,-0.227 0.447,-0.26C0.447,-0.291 0.437,-0.318 0.417,-0.341C0.396,-0.364 0.367,-0.376 0.33,-0.376Z" style="fill:white;fill-rule:nonzero;"/>
        </g>
        <g transform="matrix(144,0,0,144,980.237,485.192)">
            <path d="M0.587,-0.245L0.587,-0.226L0.204,-0.226C0.204,-0.189 0.214,-0.16 0.233,-0.141C0.252,-0.121 0.281,-0.111 0.318,-0.111C0.337,-0.111 0.354,-0.115 0.369,-0.122C0.383,-0.129 0.395,-0.141 0.405,-0.158L0.58,-0.158C0.565,-0.097 0.533,-0.053 0.483,-0.025C0.432,0.003 0.378,0.017 0.319,0.017C0.234,0.017 0.164,-0.006 0.107,-0.053C0.05,-0.099 0.022,-0.166 0.022,-0.255C0.022,-0.34 0.049,-0.407 0.102,-0.456C0.155,-0.505 0.223,-0.529 0.306,-0.529C0.395,-0.529 0.465,-0.503 0.514,-0.452C0.563,-0.401 0.587,-0.331 0.587,-0.244L0.587,-0.245ZM0.207,-0.331L0.418,-0.331C0.413,-0.355 0.401,-0.374 0.382,-0.389C0.362,-0.404 0.34,-0.411 0.315,-0.411C0.288,-0.411 0.265,-0.404 0.245,-0.391C0.225,-0.377 0.212,-0.357 0.207,-0.331Z" style="fill:white;fill-rule:nonzero;"/>
        </g>
        <g transform="matrix(144,0,0,144,1057.28,485.192)">
            <path d="M0.233,-0.07L-0.015,-0.513L0.195,-0.513L0.332,-0.25L0.466,-0.513L0.673,-0.513L0.262,0.256L0.058,0.256L0.233,-0.07Z" style="fill:white;fill-rule:nonzero;"/>
        </g>
    </g>
</svg>
